<svg xmlns="http://www.w3.org/2000/svg" xmlns:xlink="http://www.w3.org/1999/xlink" width="224.279" height="65.575" viewBox="0 0 224.279 65.575">
  <defs>
    <filter id="Path_504" x="0" y="0" width="224.279" height="65.575" filterUnits="userSpaceOnUse">
      <feOffset dy="2" input="SourceAlpha"/>
      <feGaussianBlur stdDeviation="3" result="blur"/>
      <feFlood flood-opacity="0.769"/>
      <feComposite operator="in" in2="blur"/>
      <feComposite in="SourceGraphic"/>
    </filter>
    <linearGradient id="linear-gradient" x1="0.54" y1="-0.853" x2="0.198" y2="1.386" gradientUnits="objectBoundingBox">
      <stop offset="0" stop-color="#303234"/>
      <stop offset="0.151" stop-color="#436372"/>
      <stop offset="0.301" stop-color="#535b5f"/>
      <stop offset="0.436" stop-color="#9db4bb"/>
      <stop offset="0.533" stop-color="#fff"/>
      <stop offset="0.611" stop-color="#959595"/>
      <stop offset="0.874" stop-color="#858585"/>
      <stop offset="1" stop-color="#516267"/>
    </linearGradient>
    <filter id="Subtraction_10" x="7.5" y="6.499" width="209.277" height="50.576" filterUnits="userSpaceOnUse">
      <feOffset dy="1" input="SourceAlpha"/>
      <feGaussianBlur stdDeviation="1.5" result="blur-2"/>
      <feFlood flood-opacity="0.631"/>
      <feComposite operator="in" in2="blur-2"/>
      <feComposite in="SourceGraphic"/>
    </filter>
    <radialGradient id="radial-gradient" cx="0.5" cy="0.5" r="0.5" gradientUnits="objectBoundingBox">
      <stop offset="0" stop-color="#fff"/>
      <stop offset="1" stop-color="#e0e7e9" stop-opacity="0"/>
    </radialGradient>
  </defs>
  <g id="Group_1217" data-name="Group 1217" transform="translate(-248.457 -1.935)">
    <g id="Group_1206" data-name="Group 1206" transform="translate(246 -8)">
      <g id="Group_6" data-name="Group 6" transform="translate(13.457 14.646)">
        <g id="Group_3" data-name="Group 3" transform="translate(0 4.288)">
          <g transform="matrix(1, 0, 0, 1, -11, -9)" filter="url(#Path_504)">
            <g id="Path_504-2" data-name="Path 504" transform="translate(9 7)" fill="#555d64">
              <path d="M 184.279296875 47.45019912719727 L 21.99999809265137 47.45019912719727 C 19.04682350158691 47.45019912719727 16.18207359313965 46.87184906005859 13.48529815673828 45.73119735717773 C 10.88044834136963 44.62944793701172 8.541023254394531 43.05217361450195 6.532023429870605 41.04317092895508 C 4.52302360534668 39.03417205810547 2.945748329162598 36.69474792480469 1.843998432159424 34.08989715576172 C 0.7033484578132629 31.39312171936035 0.1249984353780746 28.52837181091309 0.1249984353780746 25.57519721984863 L 0.1249984353780746 21.99999809265137 C 0.1249984353780746 19.04684829711914 0.7033484578132629 16.18207359313965 1.843998432159424 13.48529720306396 C 2.945748329162598 10.88047218322754 4.52302360534668 8.541048049926758 6.532023429870605 6.532047748565674 C 8.541023254394531 4.52304744720459 10.88044834136963 2.94574761390686 13.48529815673828 1.843997597694397 C 16.18207359313965 0.7033476829528809 19.04682350158691 0.124997653067112 21.99999809265137 0.124997653067112 L 184.279296875 0.124997653067112 C 187.2324676513672 0.124997653067112 190.0972290039063 0.7033476829528809 192.7939910888672 1.843997597694397 C 195.3988494873047 2.94574761390686 197.7382659912109 4.52304744720459 199.7472686767578 6.532047748565674 C 201.7562713623047 8.541048049926758 203.3335418701172 10.88047218322754 204.435302734375 13.48529720306396 C 205.5759429931641 16.18207359313965 206.154296875 19.04684829711914 206.154296875 21.99999809265137 L 206.154296875 25.57519721984863 C 206.154296875 28.52837181091309 205.5759429931641 31.39312171936035 204.435302734375 34.08989715576172 C 203.3335418701172 36.69474792480469 201.7562713623047 39.03417205810547 199.7472686767578 41.04317092895508 C 197.7382659912109 43.05217361450195 195.3988494873047 44.62944793701172 192.7939910888672 45.73119735717773 C 190.0972290039063 46.87184906005859 187.2324676513672 47.45019912719727 184.279296875 47.45019912719727 Z" stroke="none"/>
              <path d="M 21.99998474121094 0.2499923706054688 C 19.06364440917969 0.2499923706054688 16.21528625488281 0.8250198364257813 13.53399658203125 1.959125518798828 C 10.94404602050781 3.054573059082031 8.617996215820313 4.622859954833984 6.620407104492188 6.620414733886719 C 4.62286376953125 8.617992401123047 3.0545654296875 10.94404602050781 1.959121704101563 13.53399276733398 C 0.82501220703125 16.21528244018555 0.2499847412109375 19.06365013122559 0.2499847412109375 21.99999237060547 L 0.2499847412109375 25.57520294189453 C 0.2499847412109375 28.51154518127441 0.82501220703125 31.35991287231445 1.959121704101563 34.04120254516602 C 3.0545654296875 36.63114929199219 4.62286376953125 38.95720291137695 6.620407104492188 40.95478057861328 C 8.617996215820313 42.95233535766602 10.94404602050781 44.52062225341797 13.53399658203125 45.61606979370117 C 16.21528625488281 46.75017547607422 19.06364440917969 47.32520294189453 21.99998474121094 47.32520294189453 L 184.2793121337891 47.32520294189453 C 187.2156524658203 47.32520294189453 190.0640106201172 46.75017547607422 192.7453002929688 45.61606979370117 C 195.3352508544922 44.52062225341797 197.6613006591797 42.95233535766602 199.6588897705078 40.95478057861328 C 201.6564331054688 38.95720291137695 203.2247314453125 36.63114929199219 204.3201751708984 34.04120254516602 C 205.4542846679688 31.35991287231445 206.0293121337891 28.51154518127441 206.0293121337891 25.57520294189453 L 206.0293121337891 21.99999237060547 C 206.0293121337891 19.06365013122559 205.4542846679688 16.21528244018555 204.3201751708984 13.53399276733398 C 203.2247314453125 10.94404602050781 201.6564331054688 8.617992401123047 199.6588897705078 6.620414733886719 C 197.6613006591797 4.622859954833984 195.3352508544922 3.054573059082031 192.7453002929688 1.959125518798828 C 190.0640106201172 0.8250198364257813 187.2156524658203 0.2499923706054688 184.2793121337891 0.2499923706054688 L 21.99998474121094 0.2499923706054688 M 21.99998474121094 -7.62939453125e-06 L 184.2793121337891 -7.62939453125e-06 C 196.4295654296875 -7.62939453125e-06 206.2793121337891 9.849727630615234 206.2793121337891 21.99999237060547 L 206.2793121337891 25.57520294189453 C 206.2793121337891 37.7254638671875 196.4295654296875 47.57520294189453 184.2793121337891 47.57520294189453 L 21.99998474121094 47.57520294189453 C 9.8497314453125 47.57520294189453 -1.52587890625e-05 37.7254638671875 -1.52587890625e-05 25.57520294189453 L -1.52587890625e-05 21.99999237060547 C -1.52587890625e-05 9.849727630615234 9.8497314453125 -7.62939453125e-06 21.99998474121094 -7.62939453125e-06 Z" stroke="none" fill="#fff"/>
            </g>
          </g>
          <g transform="matrix(1, 0, 0, 1, -11, -9)" filter="url(#Subtraction_10)">
            <path id="Subtraction_10-2" data-name="Subtraction 10" d="M19505.037,21592.643H19346.33a20.788,20.788,0,1,1,0-41.576h158.707a20.788,20.788,0,0,1,0,41.576Zm-158.707-39.576a18.788,18.788,0,0,0,0,37.576h158.707a18.788,18.788,0,0,0,0-37.576Z" transform="translate(-19313.54 -21541.07)" fill="url(#linear-gradient)"/>
          </g>
        </g>
        <ellipse id="Ellipse_1" data-name="Ellipse 1" cx="30.5" cy="4.5" rx="30.5" ry="4.5" transform="translate(79.153 44.863)" opacity="0.6" fill="url(#radial-gradient)"/>
        <ellipse id="Ellipse_2" data-name="Ellipse 2" cx="30.5" cy="4.5" rx="30.5" ry="4.5" transform="translate(23.628 -2)" opacity="0.6" fill="url(#radial-gradient)"/>
      </g>
      <g id="Group_1" data-name="Group 1" transform="translate(25.713 32.744)">
        <text id="CRM" transform="translate(71.287 15.256)" fill="#cfdbe1" font-size="14" font-family="SegoeUI-Bold, Segoe UI" font-weight="700"><tspan x="0" y="0">CRM</tspan></text>
        <text id="system_for_B2C" data-name="system for B2C" transform="translate(112.259 14.178)" fill="#cfdbe1" font-size="8" font-family="SegoeUI, Segoe UI"><tspan x="0" y="0" letter-spacing="0.02em">system </tspan><tspan y="0">for B2C</tspan></text>
      </g>
    </g>
    <g id="Group_1425" data-name="Group 1425" transform="translate(139.805 -228.127)">
      <path id="Path_573" data-name="Path 573" d="M292.43,364.241c0-3.314-2.38-5.608-5.941-5.608s-6.017,2.078-6.017,5.745c0,3.55,2.679,5.629,5.9,5.629s6.059-1.609,6.059-5.766Zm-4.02.079c0,1.941-.978,2.9-1.959,2.9s-2.019-.96-2.019-2.9c0-1.666.859-2.855,2-2.855s1.979,1.148,1.979,2.855Zm-11.025-1.558L281,359h-4.877l-2.9,3.43V354.8l-4.119,2.24v12.619h4.078v-2.719l1.541-1.54,2.06,4.259h4.477l-3.876-6.9Zm-9.078,2.6s.259-3.04-1.061-4.68c-1.239-1.542-2.88-1.979-5.058-1.979-2.44,0-5.418,1.559-5.778,4.379-.391,3.061.779,6.119,4.058,6.7a10.281,10.281,0,0,0,1.943.12v-2.379s-1.841.139-2.042-2.16Zm-4-2h-3.939s-.021-2.259,1.97-2.259,1.969,2.259,1.969,2.259Z" transform="translate(-94.719 -101.622)" fill="#cfdbe1"/>
      <path id="Path_574" data-name="Path 574" d="M156.975,366.093H153.2s.261,3.68,5.5,3.68,5.4-2.9,5.4-3.8-.761-3.519-4.539-3.519c-2.819,0-2.58-1.14-2.58-1.14s.121-.7,1.28-.7,1.681.7,1.681,1.079h6.137v4.521s-.218,3.419,2.722,3.419a11.27,11.27,0,0,0,3.537-.28l-.26-2.82s-2.04,1.019-2.04-.7v-4.12h2.22v-3.359h-2.179v-3.84l-4.019,2.141v1.778H158.5s-5.1-.2-5.1,3.3c0,3.238,4.153,3.466,4.958,3.56,1.142.1,2.02.405,2.02,1.2,0,1-1.58.96-1.58.96s-1.82,0-1.82-1.36Z" transform="translate(-11 -101.388)" fill="#fff"/>
    </g>
  </g>
</svg>
